<svg width="1920" height="553" viewBox="0 0 1920 553" fill="none" xmlns="http://www.w3.org/2000/svg">
<path d="M-13.6074 246.691C56.4767 326.727 178.48 520.446 213.032 594.609L279.906 561.759C260.067 512.731 209.421 401.985 165.551 351.216C110.714 287.754 23.778 193.682 29.1279 -8.6489H129.439C111.829 37.3919 97.6071 155.455 181.601 259.383C286.593 389.293 363.499 551.306 362.83 572.958H422.348C414.546 534.383 389.981 445.288 354.136 397.505C309.331 337.777 147.502 149.632 219.057 -8.6489H322.043C288.829 40.6271 256.634 172.179 393.592 334.044C452.976 394.967 488.331 518.704 498.585 572.958L562.784 561.759C563.007 517.211 547.269 409.302 482.535 334.044C401.617 239.971 346.607 128.727 433.543 -9.39551H543.004C502.88 32.4145 438.398 136.79 505.272 246.691C588.865 384.066 640.358 439.315 630.327 572.958L689.845 561.759C686.055 503.772 667.776 375.704 624.977 327.324C571.477 266.849 475.805 119.767 645.666 -9.39551L740.849 -9.39527M740.849 -9.39527C691.139 34.4057 596.355 133.206 618.289 204.881C645.708 294.473 720.607 327.324 721.944 400.492C723.282 473.659 728.632 550.56 748.694 561.759C758.324 561.759 795.06 561.759 812.225 561.759C796.621 534.134 768.221 464.401 779.456 406.464C793.5 334.044 689.845 278.048 689.845 214.587C689.845 151.125 771.431 18.2289 865.724 -9.39551L740.849 -9.39527ZM1050.97 131.713C1153.95 198.161 1156.26 441.46 1081.73 441.46C1025.63 441.46 991.725 413.615 941.96 441.46C918.474 454.602 963.17 344.002 902.505 289.247C755.796 156.831 977.404 99.1959 1050.97 131.713Z" stroke="#95CDDC" stroke-opacity="0.35" stroke-width="2"/>
<path d="M958.624 45.0084C902.92 58.1718 834.539 136.753 807.312 174.398C762.319 241.412 811.775 301.046 842.127 322.487C860.204 525.921 905.062 495.256 929.165 497.5C953.268 499.743 1024.24 463.843 1102.57 481.045C1180.91 498.248 1188.94 430.187 1210.37 341.932C1231.79 253.678 1174.88 199.08 1162.16 130.271C1142.74 -24.548 1028.25 28.5542 958.624 45.0084Z" stroke="#95CDDC" stroke-opacity="0.35" stroke-width="2"/>
<path d="M1196.09 -10.7378C1222.43 43.6374 1275.52 161.666 1279.81 216.74C1285.16 285.582 1334.23 419.782 1246.48 559.711H1338.42C1344 530.778 1356.03 457.387 1358.18 405.307C1360.86 340.207 1341.43 207.761 1328.7 170.346C1315.98 132.932 1257.14 -10.7378 1271 -10.7378C1286.66 -10.7378 1307.77 -10.7378 1334.06 -10.7378C1361.08 70.825 1414.85 239.637 1413.77 262.385C1412.43 290.82 1419.45 541.881 1405.83 559.711C1406.76 556.718 1451.99 559.711 1473.93 559.711C1476.84 483.636 1479.69 320.602 1472.72 287.079C1464.01 245.175 1398.79 8.71753 1384.72 -10.7378C1388.47 -10.7378 1440.31 -10.7378 1465.76 -10.7378C1475.59 42.1408 1501.17 86.0549 1531.66 180.074C1553.77 275.854 1583.51 487.876 1530.46 559.711H1599.24C1614.64 506.334 1643.26 382.11 1636.83 322.248C1628.79 247.42 1560.47 65.587 1543.05 -10.7378H1614.05C1636.83 53.365 1682.38 191.448 1682.38 230.957C1682.38 280.344 1716.99 518.556 1672.78 559.711H1749.73C1749.73 514.565 1749.36 412.64 1749.36 361.158C1749.36 296.806 1737.3 158.374 1705.15 110.484C1679.43 72.1719 1673 13.7061 1673 -10.7378H1733.29M1733.29 -10.7378C1763.65 76.3124 1822.24 266.576 1813.67 331.227C1802.95 412.042 1823.68 535.766 1806.94 559.711H1874.36M1733.29 -10.7378C1762.67 -10.7378 1772.21 -10.7378 1806.3 -10.7378M1874.36 559.711C1893.72 559.711 1872.61 287.079 1872.61 203.888C1872.61 137.335 1828.4 33.0737 1806.3 -10.7378M1874.36 559.711H1939.05L1937.69 361.158C1943.14 301.544 1914.99 88.3881 1900.23 -10.7378H1806.3" stroke="#95CDDC" stroke-opacity="0.35" stroke-width="2"/>
</svg>
